PathFileType	4	(X/Y/Z)	C:\Users\WrightLab\Desktop\Jo\P5V111.trc
DataRate	CameraRate	NumFrames	NumMarkers	Units	OrigDataRate	OrigDataStartFrame	OrigNumFrames
100.00	100.00	      18	19	mm	100.00	438	      1166
Frame#	Time	Headset_Front			Headset_Back			Headset_Left			Headset_Right			Left_Shoulder			Right_Shoulder			Sternum			C7			Left Elbow			Right Elbow			Left Wrist			Right Wrist			Left ASIS			Right ASIS			S2			Left Knee			Right Knee			Left Ankle			Right Ankle			
		X1	Y1	Z1	X2	Y2	Z2	X3	Y3	Z3	X4	Y4	Z4	X5	Y5	Z5	X6	Y6	Z6	X7	Y7	Z7	X8	Y8	Z8	X9	Y9	Z9	X10	Y10	Z10	X11	Y11	Z11	X12	Y12	Z12	X13	Y13	Z13	X14	Y14	Z14	X15	Y15	Z15	X16	Y16	Z16	X17	Y17	Z17	X18	Y18	Z18	X19	Y19	Z19	

438	4.370	-508.20035	1547.30957	964.09979	-605.75458	1436.96729	918.94293							-561.06091	1550.63379	550.25568	-714.10651	1554.90967	748.60541	-536.03021	1323.27283	724.60449	-492.09561	1731.88318	817.21375	-614.62677	1312.30579	404.87451	-566.44482	1237.40417	1097.39758	-438.14514	1231.17224	500.29758	-356.98102	1109.93213	1187.17004	-569.89587	969.02112	541.67999	-570.25995	944.32599	827.44043	-822.66632	1045.75476	631.34100	-630.98163	511.04727	515.06805	-546.95935	538.01154	816.32776	-712.94342	101.15668	592.54187	-608.39728	121.89490	820.25195	
439	4.380	-505.97134	1546.81824	964.12982	-603.55865	1436.26501	919.17633							-559.54797	1550.14575	551.43311	-712.19635	1554.56592	749.34027	-535.05762	1322.38696	724.99762	-489.39026	1730.86694	817.22546	-612.40625	1312.84863	405.71194	-565.80463	1236.56934	1098.09717	-436.14020	1231.29150	499.28729	-356.93701	1108.33826	1188.61145	-568.93805	968.67682	540.57147	-568.29126	943.11151	826.30017	-820.88342	1045.62683	631.13495	-630.76056	511.49332	514.02112	-550.18713	535.18652	812.86047	-713.14703	101.05305	592.59705	-606.44086	121.81182	817.00580	
440	4.390	-504.07648	1546.27893	964.63116	-601.60913	1435.23926	919.56128							-557.90424	1549.70032	552.70532	-709.99377	1554.33582	749.81665	-533.02179	1322.57349	726.37103	-487.46982	1730.75317	817.51740	-610.94965	1313.21472	405.76517	-563.66370	1235.23792	1098.51123	-434.79517	1230.94263	499.04422	-356.54138	1105.87720	1188.91736	-567.39185	968.42700	540.20813	-566.33533	941.44354	825.98126	-818.81677	1045.45142	631.30060	-630.82001	511.68054	512.14221	-552.49976	533.63464	810.79517	-712.93665	101.23905	592.44440	-603.49805	121.73386	815.47217	
441	4.400	-500.68787	1545.32666	964.58002	-600.41406	1433.17432	917.19092							-556.38873	1550.03064	551.67188	-708.31329	1554.24170	750.88220	-530.80005	1321.43640	725.87109	-484.89240	1729.97510	817.92328	-608.98529	1313.21838	406.44775	-560.91876	1234.17651	1099.08179	-432.90274	1231.08521	499.18155	-355.74127	1104.02795	1191.11938	-566.10535	968.62244	540.10376	-564.00989	941.13373	825.03491	-816.74042	1045.28943	631.72778	-631.15796	511.85068	511.41220	-554.45642	531.65839	807.62537	-712.71222	101.34245	592.23285	-607.21045	121.60344	813.68646	
442	4.410	-499.22690	1545.18616	965.42084	-596.91907	1435.17529	921.97595							-555.04041	1549.85510	552.09210	-706.40863	1554.01001	752.11987	-529.30902	1320.61377	725.48083	-482.54352	1729.11621	818.55005	-607.35620	1313.96631	406.68607	-560.01978	1232.98108	1098.99121	-431.05533	1231.32532	498.54965	-355.39169	1102.44885	1192.60840	-565.29260	968.40137	539.91089	-560.19525	940.44232	824.46149	-814.70172	1045.23145	632.11255	-631.60156	511.64636	510.42191	-556.37524	529.66852	807.09735	-712.63263	101.41370	592.20563	-609.08984	120.78564	812.84631	
443	4.420	-495.92404	1544.42053	965.73285	-593.80298	1434.26758	921.81219										-704.17255	1553.71558	753.02405	-527.92224	1320.25659	725.16742	-479.50391	1728.45911	819.11566	-606.22919	1314.77185	405.81955	-557.93585	1231.61511	1099.87952	-428.94196	1231.52148	498.16858	-353.87878	1098.86450	1193.21838	-563.84888	969.02258	538.91693	-557.92065	939.99506	823.42535	-812.80713	1045.21448	632.82312	-631.51251	511.49484	510.00360	-557.38275	528.27930	806.15808	-712.55035	101.48566	592.17877	-608.96320	121.16235	814.27502	
444	4.430	-493.19824	1543.70020	966.30688	-592.04785	1433.65796	922.11652										-702.11340	1553.33728	754.50977	-526.02087	1320.22656	724.53357	-477.87411	1728.07837	820.16565	-604.28912	1314.60095	407.31732	-556.25623	1231.14417	1100.66724	-427.60840	1231.71936	498.66830	-352.84735	1096.79272	1195.17639	-562.34393	969.39288	538.45087	-554.87396	939.64465	822.37378	-810.45929	1045.26294	633.44879	-630.84338	511.87717	508.62811	-557.28418	526.75623	805.34222	-712.37830	101.79136	592.31970	-608.42358	120.15260	814.94196	
445	4.440	-490.72650	1543.21228	967.00787	-588.79987	1432.46960	923.11572							-550.37238	1550.89832	554.31604	-700.19281	1553.45715	755.85522	-524.21259	1319.59290	725.47015	-474.69601	1727.58044	820.76355	-603.13861	1315.21326	407.37909	-553.14166	1230.54871	1102.16040	-425.83081	1232.38391	498.28183	-351.54977	1094.97510	1197.36816	-561.18640	969.30145	538.29944	-551.67706	939.19696	822.07672	-808.65936	1045.66223	634.22498	-630.32294	512.11346	508.29666	-557.25513	526.06036	805.45422	-712.30737	101.90636	592.31274	-607.32562	119.05783	816.50885	
446	4.450	-487.88382	1542.41797	967.77710	-586.59772	1431.32068	924.70135							-548.90411	1550.73914	555.43018	-697.62823	1553.01013	756.96460	-521.60815	1319.46399	725.83893	-472.83444	1727.16211	821.89661	-602.29639	1315.95825	408.07852	-551.40723	1229.11658	1102.15735	-424.36951	1233.33350	498.11578	-351.07700	1093.74097	1199.18689	-560.33032	969.55658	538.17041	-548.58130	938.09308	820.77979	-806.67261	1045.94324	635.10138	-629.65057	512.59955	507.71793	-557.28033	525.82501	807.09351	-712.22467	102.03478	592.29218	-605.11420	118.99403	816.39630	
447	4.460	-485.41840	1541.55518	968.59521	-583.19501	1430.54846	924.39954										-695.55719	1553.02588	758.49164	-519.28607	1319.68311	726.14764	-468.83517	1726.10828	822.30145	-600.77771	1317.22522	408.47696	-549.91345	1228.17920	1103.22766	-422.49106	1233.65515	498.69574	-349.86206	1090.72144	1200.27173	-559.38068	970.21997	537.64191	-546.63940	937.95178	819.47144	-804.49597	1046.30225	635.69592	-629.01965	512.74487	506.66986	-557.65137	524.60962	808.14771	-712.13367	102.14428	592.26349	-605.18427	118.98938	817.06476	
448	4.470	-481.85562	1540.42322	969.01202	-581.99835	1430.41296	925.02240							-545.71545	1552.29956	557.30872	-693.71948	1553.02588	759.78131	-516.88446	1320.07092	726.19702	-468.30627	1726.39526	823.89197	-599.64691	1317.60181	410.09964	-547.79504	1227.11987	1104.35645	-421.44052	1234.61169	498.29062	-348.90222	1089.30237	1202.49561	-557.94690	970.80951	537.02350	-543.08112	937.96960	818.63287	-802.95593	1046.97974	636.36859	-627.95111	512.80731	505.85248	-557.31757	523.61090	809.04077	-712.04248	102.25569	592.20648	-605.06799	118.84632	817.35016	
449	4.480	-480.00110	1540.11670	969.93970	-578.53729	1430.24756	926.53247							-544.26367	1552.61450	558.48309	-691.00873	1552.71594	760.91351	-514.29474	1320.35828	726.86078	-464.23538	1725.35657	824.56903	-599.03168	1318.44885	410.83899	-546.38751	1226.36377	1104.70728	-419.90158	1235.29126	498.13095	-347.67456	1087.22400	1204.33154	-556.74048	971.46527	536.48004	-541.27277	937.90350	817.83362	-801.36737	1047.67285	636.82892	-626.77594	513.66266	504.89627	-556.96069	523.29968	810.05713	-711.95093	102.37260	592.16327	-605.27844	118.63608	817.87360	
450	4.490	-477.20013	1539.30579	970.42474	-576.52679	1430.41309	927.28326							-542.49841	1553.73242	558.79260	-689.55798	1552.75537	762.42993	-511.88733	1320.17810	726.58777	-463.38693	1725.65076	826.07806	-598.10663	1319.30981	410.69464	-544.87769	1225.08167	1105.52820	-418.64212	1235.81152	497.70020	-347.02063	1085.90076	1205.50610	-555.52759	971.70673	536.03058	-538.54553	937.82758	816.76654	-799.52344	1048.21008	637.22247	-625.84741	514.09705	504.34872	-557.36432	522.63129	811.13354	-711.66669	102.61381	591.98035	-605.22668	118.41508	817.93060	
451	4.500	-474.74814	1538.43384	971.13525	-573.79138	1429.61951	927.41339							-540.86475	1553.71826	560.44476	-686.76459	1552.71545	763.14740	-510.95190	1320.37415	727.37592	-459.82391	1724.67310	827.00568	-596.95245	1319.67676	411.43512	-543.62439	1224.46143	1106.18372	-417.08902	1236.86951	498.36246	-346.39578	1084.57349	1206.97656	-554.08069	972.39166	535.15417	-536.38568	937.87115	815.47662	-798.05963	1048.69519	637.51727	-624.97809	514.73022	504.05643	-558.24463	522.02814	812.00897	-711.87927	103.32609	591.60278	-605.39911	118.41401	817.56525	
452	4.510	-472.24707	1537.40222	971.67737	-571.26764	1429.23206	928.31256							-539.44000	1553.81519	560.98206	-684.34540	1552.38184	764.22784	-508.70428	1320.20886	726.67706	-457.26987	1724.42261	828.28656	-595.99084	1320.39148	410.83884	-542.26044	1223.03735	1106.79382	-416.06836	1238.23718	497.79352	-345.62769	1083.00732	1208.09338	-552.39020	973.01093	534.60675	-535.13074	937.85431	815.44476	-796.70032	1049.07190	637.66846	-623.52643	515.39374	502.94058	-558.50000	521.65912	813.21185	-712.12469	104.17805	591.56506	-605.63422	118.32629	817.21478	
453	4.520	-469.79025	1536.50122	972.16034	-568.19501	1428.17041	928.31329							-537.53442	1554.60864	561.49780	-682.91144	1552.58984	765.45178	-506.55682	1320.33765	727.07660	-454.83624	1724.03479	829.49792	-595.38855	1321.89111	410.40555	-541.47546	1221.92554	1107.36731	-415.14966	1238.65710	497.92310	-345.37741	1082.15112	1209.32422	-550.32922	973.39813	534.30499	-531.35266	938.28607	814.55682	-795.19867	1049.34338	637.84845	-622.12665	515.65149	502.58902	-558.57922	521.57343	815.94519	-711.64386	105.02521	591.53326	-605.87604	117.12265	815.68335	
454	4.530	-467.65369	1535.58948	972.73395	-565.09125	1427.53674	929.01660							-536.03479	1554.27808	562.64832	-679.30664	1551.99207	765.85974	-504.58041	1319.98792	726.55212	-452.37250	1723.62231	830.52643	-594.48108	1322.10547	411.52094	-541.16980	1221.19873	1107.86792	-413.59018	1239.47876	497.77786	-345.37039	1081.38025	1209.76001	-548.88580	973.26038	534.06964	-529.69855	937.46106	814.33929	-793.67218	1049.45374	638.00977	-619.70538	515.68262	502.71643	-558.47217	521.03528	816.82544	-711.40466	105.22808	591.28845	-606.02460	116.80402	815.03851	
455	4.540	-465.04767	1534.75891	972.99945	-563.01038	1427.08728	929.19556							-534.36755	1554.56592	561.44629	-678.43610	1552.48181	767.28027	-502.51208	1319.57776	726.77423	-449.61212	1723.11914	831.48157	-593.01880	1321.74231	412.58383	-540.34290	1219.59741	1108.48511	-412.54837	1240.21179	497.08829	-345.04404	1080.13721	1210.31982	-547.60229	973.38458	533.67407	-528.35480	937.08209	813.98767	-792.12891	1049.45520	638.06989	-617.92926	515.58130	502.51068	-558.72314	520.43390	818.00061	-711.50073	105.65842	591.08301	-606.24023	116.65688	814.93970	
